<svg id="Layer_1" data-name="Layer 1" xmlns="http://www.w3.org/2000/svg" viewBox="0 0 105.34 122.88"><defs><style>.cls-1{fill-rule:evenodd;}</style></defs><title>book-literature</title><path class="cls-1" d="M17.52,0H102V94.24c-.15,2.64-3.55,2.7-7.23,2.53H16.27a9.24,9.24,0,0,0,0,18.48H98.11v-9.83h7.23v12.49a4.15,4.15,0,0,1-4.14,4.14H16.63C7.48,125.44,0,118,0,108.81V17.52A17.57,17.57,0,0,1,17.52,0ZM16.25,107.92H91.41a1.38,1.38,0,0,1,1.38,1.38v.84a1.39,1.39,0,0,1-1.38,1.38H16.25a1.39,1.39,0,0,1-1.39-1.38v-.84a1.39,1.39,0,0,1,1.39-1.38Zm0-7.14H91.41a1.38,1.38,0,0,1,1.38,1.38V103a1.39,1.39,0,0,1-1.38,1.38H16.25A1.39,1.39,0,0,1,14.86,103v-.84a1.39,1.39,0,0,1,1.39-1.38Z"/></svg>